<?xml version="1.0" encoding="utf-8"?>
<!-- Generator: Adobe Illustrator 21.1.0, SVG Export Plug-In . SVG Version: 6.00 Build 0)  -->
<svg version="1.1" id="Laag_1" xmlns="http://www.w3.org/2000/svg" xmlns:xlink="http://www.w3.org/1999/xlink" x="0px" y="0px"
	 viewBox="0 0 156.7 158.3" style="enable-background:new 0 0 156.7 158.3;" xml:space="preserve">
<style type="text/css">
	.st0{fill:none;}
	.st1{fill:none;stroke:#0A0C06;stroke-width:0.216;stroke-linejoin:bevel;stroke-miterlimit:22.9256;}
	.st2{fill:#0066FF;stroke:#0066FF;stroke-miterlimit:10;}
	.st3{fill:none;stroke:#0A0C06;stroke-linejoin:bevel;stroke-miterlimit:22.9256;}
	.st4{fill:#1D1D1B;}
	.st5{fill:none;stroke:#1D1D1B;stroke-width:0.2835;stroke-miterlimit:22.9256;}
	.st6{fill:#575756;}
	.st7{font-family:'ArialMT';}
	.st8{font-size:6.043px;}
	.st9{fill:#FF6C2C;}
	.st10{fill:#1D1D1B;stroke:#000000;stroke-width:0.25;stroke-miterlimit:10;}
	.st11{stroke:#000000;stroke-width:0.25;stroke-miterlimit:10;}
	.st12{font-family:'MyriadPro-Regular';}
	.st13{font-size:6px;}
</style>
<rect x="27.3" y="129.7" class="st0" width="86.5" height="27.2"/>
<line class="st1" x1="10.6" y1="100" x2="11.4" y2="101"/>
<line class="st1" x1="151.5" y1="43.5" x2="151.5" y2="60.9"/>
<line class="st1" x1="11.4" y1="101" x2="11.4" y2="110.6"/>
<path class="st1" d="M151.5,43.5c0-3-1.2-5.9-3.3-8.1"/>
<line class="st1" x1="11.4" y1="69.9" x2="11.4" y2="99"/>
<line class="st1" x1="11.4" y1="58.5" x2="11.4" y2="67.8"/>
<line class="st1" x1="5.2" y1="58.5" x2="11.4" y2="58.5"/>
<line class="st1" x1="5.2" y1="67.8" x2="5.2" y2="58.5"/>
<line class="st1" x1="6.1" y1="68.9" x2="5.2" y2="67.8"/>
<line class="st1" x1="5.2" y1="69.9" x2="6.1" y2="68.9"/>
<line class="st1" x1="5.2" y1="99" x2="5.2" y2="69.9"/>
<line class="st1" x1="6.1" y1="100" x2="5.2" y2="99"/>
<line class="st1" x1="5.2" y1="101" x2="6.1" y2="100"/>
<path class="st2" d="M62.6,68.6c0,2.9-2.3,5.2-5.2,5.2s-5.2-2.3-5.2-5.2c0-1.9,1-3.6,2.6-4.5s3.6-0.9,5.2,0
	C61.6,65.1,62.6,66.8,62.6,68.6"/>
<line class="st1" x1="33.4" y1="8.1" x2="51.6" y2="26.9"/>
<line class="st1" x1="115.6" y1="127.2" x2="115.6" y2="158"/>
<line class="st1" x1="24.6" y1="155.8" x2="24.6" y2="127.2"/>
<line class="st1" x1="23.6" y1="54" x2="5.9" y2="35.6"/>
<line class="st1" x1="24.6" y1="127.2" x2="115.6" y2="127.2"/>
<line class="st1" x1="51.6" y1="26.9" x2="23.6" y2="54"/>
<line class="st1" x1="11.4" y1="67.8" x2="10.6" y2="68.9"/>
<line class="st1" x1="5.9" y1="35.6" x2="4.7" y2="34.3"/>
<line class="st1" x1="31.1" y1="6.3" x2="32.2" y2="6.8"/>
<line class="st1" x1="4.7" y1="34.3" x2="4.2" y2="33.2"/>
<line class="st3" x1="36.3" y1="1" x2="31.1" y2="6.3"/>
<path class="st3" d="M37.6,0.5c-0.5,0-0.9,0.2-1.2,0.5"/>
<line class="st3" x1="119.2" y1="0.5" x2="37.6" y2="0.5"/>
<path class="st1" d="M145.3,44.2c0-1.8-0.7-3.6-2-4.9"/>
<line class="st1" x1="5.2" y1="112.4" x2="5.2" y2="101"/>
<line class="st1" x1="137.4" y1="24.6" x2="148.2" y2="35.4"/>
<line class="st1" x1="135.9" y1="23.1" x2="136" y2="24.5"/>
<line class="st1" x1="102.6" y1="10.6" x2="103.8" y2="9.7"/>
<path class="st1" d="M81.5,9.7c-1.1,0-2.1,0.6-2.7,1.6s-0.6,2.2,0,3.1c0.6,1,1.6,1.6,2.7,1.6"/>
<line class="st1" x1="102.6" y1="15.1" x2="101.4" y2="15.9"/>
<line class="st1" x1="131.5" y1="27.5" x2="121.9" y2="18"/>
<line class="st1" x1="11.4" y1="99" x2="10.6" y2="100"/>
<line class="st1" x1="133" y1="29" x2="132.8" y2="27.7"/>
<path class="st1" d="M5.2,112.4c0,3,1.2,5.9,3.3,8.1c2.1,2.1,5,3.3,8.1,3.3"/>
<line class="st1" x1="136" y1="24.5" x2="137.4" y2="24.6"/>
<line class="st1" x1="125.8" y1="13" x2="135.9" y2="23.1"/>
<line class="st1" x1="101.4" y1="9.7" x2="102.6" y2="10.6"/>
<line class="st1" x1="103.8" y1="15.9" x2="102.6" y2="15.1"/>
<line class="st1" x1="132.8" y1="27.7" x2="131.5" y2="27.5"/>
<path class="st1" d="M121.9,18c-1.3-1.3-3.1-2-4.9-2"/>
<line class="st1" x1="143.3" y1="39.3" x2="133" y2="29"/>
<path class="st1" d="M125.8,13c-2.1-2.1-5-3.3-8.1-3.3"/>
<line class="st1" x1="103.8" y1="9.7" x2="117.7" y2="9.7"/>
<line class="st1" x1="81.5" y1="9.7" x2="101.4" y2="9.7"/>
<line class="st1" x1="101.4" y1="15.9" x2="81.5" y2="15.9"/>
<line class="st1" x1="117" y1="15.9" x2="103.8" y2="15.9"/>
<line class="st1" x1="151.5" y1="95.5" x2="150.7" y2="96.5"/>
<line class="st1" x1="151.5" y1="60.9" x2="150.7" y2="61.9"/>
<line class="st1" x1="150.7" y1="96.5" x2="151.5" y2="97.6"/>
<line class="st1" x1="150.7" y1="61.9" x2="151.5" y2="63"/>
<path class="st4" d="M94.6,68.6c0,1.9-1,3.6-2.6,4.5s-3.6,0.9-5.2,0s-2.6-2.6-2.6-4.5c0-2.9,2.3-5.2,5.2-5.2
	C92.3,63.5,94.6,65.8,94.6,68.6"/>
<line class="st1" x1="151.5" y1="97.6" x2="151.5" y2="112.4"/>
<line class="st1" x1="151.5" y1="63" x2="151.5" y2="95.5"/>
<line class="st1" x1="10.6" y1="68.9" x2="11.4" y2="69.9"/>
<path class="st3" d="M26,157.3c0.3,0.3,0.8,0.5,1.2,0.5"/>
<line class="st3" x1="129.6" y1="157.8" x2="27.2" y2="157.8"/>
<line class="st3" x1="31.1" y1="6.3" x2="4.2" y2="33.2"/>
<path class="st3" d="M129.6,157.8c0.5,0,0.9-0.2,1.2-0.5"/>
<line class="st1" x1="27.5" y1="123.8" x2="25.4" y2="123.8"/>
<line class="st1" x1="40.3" y1="122.9" x2="39.3" y2="123.8"/>
<line class="st1" x1="41.3" y1="123.8" x2="40.3" y2="122.9"/>
<line class="st1" x1="116.4" y1="122.9" x2="115.4" y2="123.8"/>
<line class="st1" x1="117.5" y1="123.8" x2="116.4" y2="122.9"/>
<line class="st1" x1="131.3" y1="123.8" x2="129.2" y2="123.8"/>
<line class="st1" x1="145.3" y1="86.8" x2="145.3" y2="77.7"/>
<line class="st1" x1="145.3" y1="110.6" x2="145.3" y2="108.7"/>
<line class="st1" x1="129.2" y1="117.5" x2="131.3" y2="117.5"/>
<line class="st1" x1="116.4" y1="118.4" x2="117.5" y2="117.5"/>
<line class="st3" x1="156.2" y1="131.3" x2="156.2" y2="37.6"/>
<path class="st3" d="M155.7,132.5c0.3-0.3,0.5-0.8,0.5-1.2"/>
<line class="st3" x1="130.8" y1="157.3" x2="155.7" y2="132.5"/>
<line class="st3" x1="0.5" y1="37.6" x2="0.5" y2="131.3"/>
<path class="st3" d="M1,36.3c-0.3,0.3-0.5,0.8-0.5,1.2"/>
<line class="st3" x1="4.2" y1="33.2" x2="1" y2="36.3"/>
<path class="st3" d="M0.5,131.3c0,0.5,0.2,0.9,0.5,1.2"/>
<line class="st3" x1="1" y1="132.5" x2="26.2" y2="157.4"/>
<path class="st1" d="M81.5,15.9c1.7,0,3.1-1.4,3.1-3.1"/>
<path class="st1" d="M84.6,12.8c0-1.7-1.4-3.1-3.1-3.1"/>
<line class="st1" x1="87.9" y1="0.7" x2="68.9" y2="0.7"/>
<line class="st1" x1="3.2" y1="134.4" x2="16.6" y2="147.9"/>
<line class="st1" x1="140.1" y1="147.9" x2="153.6" y2="134.4"/>
<line class="st1" x1="129.2" y1="123.8" x2="79.4" y2="123.8"/>
<path class="st1" d="M140.1,123.8c3,0,5.9-1.2,8.1-3.3c2.1-2.1,3.3-5,3.3-8.1"/>
<line class="st1" x1="145.3" y1="95.5" x2="145.3" y2="63"/>
<path class="st1" d="M138.4,117.5c3.8,0,6.9-3.1,6.9-6.9"/>
<line class="st1" x1="130.3" y1="118.4" x2="131.3" y2="117.5"/>
<line class="st1" x1="27.5" y1="117.5" x2="77.3" y2="117.5"/>
<line class="st1" x1="25.4" y1="123.8" x2="16.6" y2="123.8"/>
<line class="st1" x1="27.5" y1="123.8" x2="26.5" y2="122.9"/>
<line class="st1" x1="79.4" y1="123.8" x2="78.4" y2="122.9"/>
<line class="st1" x1="140.1" y1="123.8" x2="131.3" y2="123.8"/>
<line class="st1" x1="145.3" y1="63" x2="146.2" y2="61.9"/>
<line class="st1" x1="145.3" y1="110.6" x2="145.3" y2="97.6"/>
<line class="st1" x1="131.3" y1="117.5" x2="138.4" y2="117.5"/>
<line class="st1" x1="77.3" y1="117.5" x2="78.4" y2="118.4"/>
<path class="st1" d="M11.4,110.6c0,1.8,0.7,3.6,2,4.9s3.1,2,4.9,2"/>
<line class="st1" x1="78.4" y1="118.4" x2="79.4" y2="117.5"/>
<line class="st1" x1="18.3" y1="117.5" x2="25.4" y2="117.5"/>
<line class="st1" x1="26.5" y1="122.9" x2="25.4" y2="123.8"/>
<line class="st1" x1="77.3" y1="123.8" x2="27.5" y2="123.8"/>
<line class="st1" x1="130.3" y1="122.9" x2="129.2" y2="123.8"/>
<line class="st1" x1="145.3" y1="60.9" x2="145.3" y2="44.2"/>
<line class="st1" x1="146.2" y1="96.5" x2="145.3" y2="95.5"/>
<line class="st1" x1="129.2" y1="117.5" x2="130.3" y2="118.4"/>
<line class="st1" x1="26.5" y1="118.4" x2="27.5" y2="117.5"/>
<line class="st1" x1="78.4" y1="122.9" x2="77.3" y2="123.8"/>
<line class="st1" x1="131.3" y1="123.8" x2="130.3" y2="122.9"/>
<line class="st1" x1="146.2" y1="61.9" x2="145.3" y2="60.9"/>
<line class="st1" x1="145.3" y1="97.6" x2="146.2" y2="96.5"/>
<line class="st1" x1="79.4" y1="117.5" x2="129.2" y2="117.5"/>
<line class="st1" x1="25.4" y1="117.5" x2="26.5" y2="118.4"/>
<line class="st1" x1="32.2" y1="6.8" x2="33.4" y2="8.1"/>
<path class="st3" d="M120.4,1c-0.3-0.3-0.8-0.5-1.2-0.5"/>
<line class="st3" x1="155.7" y1="36.3" x2="120.4" y2="1"/>
<path class="st3" d="M156.2,37.6c0-0.5-0.2-0.9-0.5-1.2"/>
<line class="st1" x1="115.4" y1="117.5" x2="116.4" y2="118.4"/>
<line class="st1" x1="40.3" y1="118.4" x2="41.3" y2="117.5"/>
<line class="st1" x1="39.3" y1="117.5" x2="40.3" y2="118.4"/>
<line class="st1" x1="25.4" y1="117.5" x2="27.5" y2="117.5"/>
<path class="st1" d="M42.5,140c0-3.6-2.9-6.6-6.6-6.6c-3.6,0-6.6,2.9-6.6,6.6"/>
<path class="st1" d="M29.4,140c0,3.6,2.9,6.6,6.6,6.6c3.6,0,6.6-2.9,6.6-6.6"/>
<path class="st1" d="M59.9,140c0-3.6-2.9-6.6-6.6-6.6c-3.6,0-6.6,2.9-6.6,6.6"/>
<path class="st1" d="M46.7,140c0,2.3,1.3,4.5,3.3,5.7s4.5,1.2,6.6,0c2-1.2,3.3-3.3,3.3-5.7"/>
<path class="st1" d="M111.8,140c0-3.6-2.9-6.6-6.6-6.6c-3.6,0-6.6,2.9-6.6,6.6"/>
<path class="st1" d="M98.6,140c0,2.3,1.3,4.5,3.3,5.7s4.5,1.2,6.6,0c2-1.2,3.3-3.3,3.3-5.7"/>
<path class="st1" d="M94.5,140c0-2.3-1.3-4.5-3.3-5.7s-4.5-1.2-6.6,0c-2,1.2-3.3,3.3-3.3,5.7"/>
<path class="st1" d="M81.3,140c0,3.6,2.9,6.6,6.6,6.6c3.6,0,6.6-2.9,6.6-6.6"/>
<path class="st1" d="M77.2,140c0-3.6-2.9-6.6-6.6-6.6c-3.6,0-6.6,2.9-6.6,6.6"/>
<path class="st1" d="M64,140c0,2.3,1.3,4.5,3.3,5.7s4.5,1.2,6.6,0c2-1.2,3.3-3.3,3.3-5.7"/>
<line class="st1" x1="27.3" y1="150.4" x2="113.8" y2="150.4"/>
<line class="st1" x1="113.8" y1="129.7" x2="27.3" y2="129.7"/>
<line class="st1" x1="113.8" y1="150.4" x2="113.8" y2="154.3"/>
<line class="st1" x1="113.8" y1="129.7" x2="113.8" y2="150.4"/>
<line class="st1" x1="4.5" y1="33.6" x2="4.5" y2="33.5"/>
<line class="st1" x1="27.3" y1="157.7" x2="27.3" y2="129.7"/>
<line class="st1" x1="113.8" y1="154.3" x2="113.8" y2="157.7"/>
<path class="st5" d="M17,45.1c-3.2-3.3-3-8.7,0.3-11.9C20.7,30,26,30,29.2,33.4c3.2,3.3,3.1,8.8-0.2,12C25.7,48.6,20.2,48.5,17,45.1
	z M36.8,39.5L23.4,25.6L9.4,39l13.4,13.9L36.8,39.5z M21.2,47.6l2,0.1c1.5-13.9,0.3-2.6,1.8-16.5L22.9,31
	C21.4,45,22.6,33.3,21.2,47.6z"/>
<path class="st5" d="M31,31.7c-3.2-3.3-3-8.7,0.3-11.9s8.7-3.2,11.9,0.1c3.2,3.3,3.1,8.8-0.2,12C39.6,35.2,34.2,35.1,31,31.7z
	 M50.7,26.1L37.3,12.2L23.4,25.6l13.4,13.9L50.7,26.1z M35.1,34.1l2,0.1c1.5-13.9,0.3-2.6,1.8-16.5l-2.1-0.2
	C35.3,31.6,36.5,19.9,35.1,34.1z"/>
<path class="st5" d="M36,133.5c3.6,0,6.5,3,6.5,6.6s-2.9,6.6-6.5,6.6s-6.6-3-6.6-6.6C29.3,136.5,32.3,133.5,36,133.5z M41.5,136.5
	l-1-1.2c-8.4,7-1.6,1.3-9.9,8.3l1,1.2C39.9,137.8,33.1,143.4,41.5,136.5z"/>
<path class="st5" d="M53.3,133.5c3.6,0,6.5,3,6.5,6.6s-2.9,6.6-6.5,6.6s-6.6-3-6.6-6.6S49.7,133.5,53.3,133.5z M49.7,134.5l-1.1,1
	c7,8.4,1.3,1.6,8.3,9.9l1.2-1C51.4,136.4,55.9,141.8,49.7,134.5z"/>
<path class="st5" d="M70.6,133.5c3.6,0,6.5,3,6.5,6.6s-2.9,6.6-6.5,6.6s-6.6-3-6.6-6.6S67,133.5,70.6,133.5z M67,134.5l-1.1,1
	c7,8.4,1.3,1.6,8.3,9.9l1.2-1C68.3,136,74.2,143,67,134.5z"/>
<path class="st5" d="M87.9,133.5c3.6,0,6.5,3,6.5,6.6s-2.9,6.6-6.5,6.6s-6.6-3-6.6-6.6S84.3,133.5,87.9,133.5z M93.4,136.5l-1-1.2
	c-8.4,7-1.6,1.3-9.9,8.3l1,1.2C91.8,137.8,85,143.4,93.4,136.5z"/>
<path class="st5" d="M105.2,133.5c3.6,0,6.5,3,6.5,6.6s-2.9,6.6-6.5,6.6s-6.6-3-6.6-6.6S101.6,133.5,105.2,133.5z M110.7,136.5
	l-1-1.2c-8.4,7-1.6,1.3-9.9,8.3l1,1.2C109.1,137.8,102.3,143.4,110.7,136.5z"/>
<path class="st6" d="M81.5,10.5c0.4,0,0.7,0.1,1,0.2h35.4c1.3,0,2.6,0.2,3.7,0.7c1.2,0.5,2.2,1.2,3.1,2.1l23.1,22.7
	c1,0.9,1.7,2,2.2,3.2s0.7,2.4,0.7,3.8v67.6c0,3.2-1.3,6.1-3.4,8.3l0,0c-2.1,2.1-5,3.4-8.3,3.4l0,0H17.8l0,0c-3.2,0-6.1-1.3-8.3-3.4
	l0,0c-2.1-2.1-3.4-5-3.4-8.3V75.9c0-0.8,0.7-1.5,1.5-1.5h1.1c0.8,0,1.5,0.7,1.5,1.5v34.9c0,2.1,0.8,3.9,2.2,5.3l0,0
	c1.3,1.3,3.2,2.2,5.3,2.2l0,0h121.2l0,0c2.1,0,3.9-0.8,5.3-2.2l0,0c1.3-1.3,2.2-3.2,2.2-5.3V43.2c0-0.8-0.1-1.5-0.4-2.2
	c-0.3-0.7-0.7-1.3-1.2-1.8l-23.1-22.7c-0.6-0.5-1.1-0.9-1.8-1.2c-0.6-0.3-1.3-0.4-2.1-0.4H82.5c-0.3,0.1-0.6,0.2-1,0.2
	c-1.3,0-2.3-1-2.3-2.3S80.2,10.5,81.5,10.5"/>
<text transform="matrix(1 0 0 1 70.8889 80.6477)" class="st4 st7 st8">M</text>
<text transform="matrix(1 0 0 1 76.2586 80.6477)" class="st4 st7 st8">i</text>
<text transform="matrix(1 0 0 1 77.9373 80.6477)" class="st4 st7 st8">n</text>
<text transform="matrix(1 0 0 1 81.6341 80.6477)" class="st4 st7 st8">.</text>
<text transform="matrix(1 0 0 1 83.6487 80.6477)" class="st4 st7 st8">S</text>
<text transform="matrix(1 0 0 1 88.0154 80.6477)" class="st4 st7 st8">e</text>
<text transform="matrix(1 0 0 1 91.7122 80.6477)" class="st4 st7 st8">t</text>
<text transform="matrix(1 0 0 1 49.2776 80.3908)" class="st4 st7 st8">R</text>
<text transform="matrix(1 0 0 1 53.9773 80.3908)" class="st4 st7 st8">e</text>
<text transform="matrix(1 0 0 1 57.6741 80.3908)" class="st4 st7 st8">s</text>
<text transform="matrix(1 0 0 1 61.0315 80.3908)" class="st4 st7 st8">e</text>
<text transform="matrix(1 0 0 1 64.7283 80.3908)" class="st4 st7 st8">t</text>
<g>
	<path d="M112.4,70.9c-2.5,0-4.8,1-6.4,2.6c-1.6,1.7-2.6,3.9-2.6,6.4h1.5c0-2.1,0.8-3.9,2.2-5.3c1.4-1.4,3.2-2.2,5.3-2.2V70.9z"/>
	<path d="M112.5,69.1v-1.5c-3.4,0-6.5,1.4-8.7,3.6c-2.2,2.3-3.6,5.3-3.6,8.7l1.6-0.1c0-3,1.2-5.7,3.1-7.6
		C106.9,70.3,109.5,69.1,112.5,69.1z"/>
	<path d="M112.4,75c-2.7,0-4.9,2.2-4.9,4.9s2.2,4.9,4.9,4.9s4.9-2.2,4.9-4.9S115.1,75,112.4,75z M114.8,80.9l-1,1.6h-4.2l2.3-3.6
		h-2.2l1-1.6l4.2,0.1l-2.2,3.5H114.8z"/>
	<path d="M115.9,92c-0.1,0-0.2-0.1-0.4-0.1c-0.1,0-0.3,0-0.5,0h-0.3v1.7h0.3c0.2,0,0.4,0,0.5,0c0.2,0,0.3-0.1,0.4-0.1
		c0.3-0.1,0.4-0.4,0.4-0.7C116.3,92.4,116.2,92.1,115.9,92z"/>
	<path d="M133.2,79.6c-0.1,0.3-0.1,0.5-0.1,0.8c0-0.3,0-0.5-0.1-0.8l-0.7-2.4h-1.9l2,5.2h1.6l2-5.2h-2.1L133.2,79.6z"/>
	<polygon points="138.8,80.5 140.2,80.5 140.2,79.2 138.8,79.2 138.8,78.7 140.3,78.7 140.3,77.3 137,77.3 137,82.4 140.4,82.4 
		140.4,81 138.8,81 	"/>
	<path d="M141.9,64.2c-0.8-0.7-1.8-1.2-3-1.2h-38.2c-1.2,0-2.3,0.5-3,1.3c-0.7,0.8-1.2,1.8-1.2,3v29.1c0,1.2,0.4,2.2,1.2,3
		c0.8,0.7,1.8,1.2,3,1.2h38.2c1.2,0,2.2-0.4,3-1.2c0.7-0.8,1.2-1.8,1.2-3V67.2C143.1,66,142.7,65,141.9,64.2z M115.7,95.2h-1v2.3
		h-1.8v-7h2.8c0.8,0,1.4,0.2,1.8,0.5c0.5,0.4,0.7,1,0.7,1.8C118.2,94.4,117.4,95.2,115.7,95.2z M124.8,97.5h-4v-7h1.8V96h2.2V97.5z
		 M133.2,94.4c0,0.3,0,0.5,0,0.7s0,0.5-0.1,0.6c-0.1,0.5-0.3,0.8-0.6,1.1s-0.6,0.5-1.1,0.6c-0.4,0.1-0.8,0.2-1.2,0.2
		c-0.5,0-0.9-0.1-1.2-0.2c-0.4-0.1-0.8-0.3-1.1-0.6c-0.3-0.3-0.5-0.7-0.6-1.1c0-0.2-0.1-0.4-0.1-0.6s0-0.4,0-0.7v-3.9h1.8v3.7
		c0,0.3,0,0.5,0,0.7s0.1,0.5,0.1,0.6c0.2,0.4,0.5,0.6,1.1,0.6c0.5,0,0.9-0.2,1.1-0.6c0.1-0.2,0.1-0.4,0.1-0.6s0-0.4,0-0.7v-3.7h1.8
		L133.2,94.4L133.2,94.4z M140.9,96c-0.1,0.4-0.3,0.6-0.6,0.9c-0.3,0.2-0.6,0.4-0.9,0.5c-0.3,0.1-0.7,0.2-1,0.2
		c-0.9,0-1.7-0.3-2.5-0.8l0.8-1.5c0.3,0.2,0.5,0.4,0.7,0.5c0.3,0.1,0.6,0.2,0.9,0.2c0.2,0,0.4-0.1,0.6-0.2c0.2-0.1,0.3-0.3,0.3-0.5
		s-0.1-0.4-0.4-0.5c-0.1-0.1-0.2-0.1-0.4-0.1l-0.3-0.1c-0.3-0.1-0.6-0.2-0.8-0.3c-0.2-0.1-0.4-0.2-0.6-0.3c-0.3-0.3-0.5-0.8-0.5-1.4
		c0-0.7,0.2-1.3,0.7-1.7c0.5-0.4,1-0.6,1.7-0.6c0.8,0,1.5,0.2,2.2,0.6l-0.9,1.4c-0.4-0.3-0.8-0.5-1.2-0.5c-0.2,0-0.4,0-0.5,0.1
		c-0.2,0.1-0.3,0.3-0.3,0.4c0,0.2,0.1,0.3,0.3,0.5c0.1,0,0.2,0.1,0.3,0.1s0.2,0.1,0.3,0.1l0.5,0.1c0.5,0.2,1,0.4,1.2,0.6
		c0.3,0.3,0.5,0.7,0.5,1.3C141,95.4,141,95.7,140.9,96z M141.9,85.6h-23.5c-1.5,1.6-3.7,2.6-6,2.6c-2.4,0-4.5-1-6-2.6h-8.8l0.1-18.3
		c0-0.8,0.3-1.5,0.9-2.1c0.5-0.6,1.3-0.9,2.1-0.9h38.2c0.8,0,1.5,0.3,2.1,0.9c0.6,0.5,0.9,1.3,0.9,2.1V85.6z"/>
	<path d="M126.9,77.1l-1.8,5.2h1.9l0.2-0.6h1.4l0.2,0.6h1.9l-1.8-5.2H126.9z M127.5,80.5l0.3-1.6h0.1c0,0.1,0,0.2,0.1,0.3
		c0,0.1,0,0.1,0,0.2s0,0.1,0,0.2l0.2,0.9H127.5z"/>
	<path d="M123.5,77.2l-0.5,2.2c-0.1,0.3-0.1,0.6-0.1,0.9l-0.7-3.1h-1.3l-0.5,2.1c-0.1,0.3-0.1,0.6-0.1,1l-0.6-3.1h-2.1l1.7,5.2h1.5
		l0.5-2c0.1-0.3,0.1-0.5,0.1-0.8h0.1l0.6,2.8h1.5l1.7-5.2H123.5z"/>
</g>
<g>
	<path class="st9" d="M69.7,30.3c0,3.3-1.5,4.9-4.6,5h-0.4l1.9,1.8c1.1,1.1,1.1,2.2,0.2,3.2c-0.9,1.1-2,1.1-3.3,0L59,35.8
		c-1.1-0.9-1.7-1.6-1.7-2.2c0-1.7,0.8-2.6,2.4-2.6h5.5c0.6,0,0.9-0.2,0.9-0.7c0-0.4-0.3-0.7-0.9-0.7h-5.8c-1.4,0-2.1-0.7-2.1-2.2
		s0.7-2.2,2.1-2.2H65C68.1,25.3,69.7,27,69.7,30.3z"/>
	<path class="st9" d="M71,33.1c0-1.1,0.2-2.1,0.6-3.1s1-1.8,1.7-2.6c0.7-0.7,1.6-1.3,2.5-1.7c1-0.4,2-0.6,3.1-0.6s2.1,0.2,3.1,0.6
		s1.8,1,2.6,1.7c0.7,0.7,1.3,1.6,1.7,2.6c0.4,1,0.6,2,0.6,3.1c0,1.1-0.2,2.1-0.6,3.1s-1,1.8-1.7,2.5S83,40,82,40.4S80,41,78.9,41
		s-2.1-0.2-3.1-0.6c-1-0.4-1.8-1-2.5-1.7s-1.3-1.6-1.7-2.5C71.2,35.2,71,34.2,71,33.1z M75.4,33.2c0,0.5,0.1,1,0.3,1.4
		c0.2,0.4,0.4,0.8,0.8,1.2c0.3,0.3,0.7,0.6,1.2,0.8c0.4,0.2,0.9,0.3,1.4,0.3s1-0.1,1.4-0.3s0.8-0.4,1.2-0.8c0.3-0.3,0.6-0.7,0.8-1.2
		c0.2-0.4,0.3-0.9,0.3-1.4s-0.1-1-0.3-1.4c-0.2-0.4-0.5-0.8-0.8-1.2c-0.3-0.3-0.7-0.6-1.2-0.8c-0.4-0.2-0.9-0.3-1.4-0.3
		s-1,0.1-1.4,0.3c-0.4,0.2-0.8,0.5-1.2,0.8c-0.3,0.3-0.6,0.7-0.8,1.2C75.5,32.2,75.4,32.6,75.4,33.2z"/>
	<path class="st4" d="M90.8,35.3c-1.4,0-2.1-0.7-2.1-2.2s0.7-2.2,2.1-2.2h6.7c0.6,0,0.9-0.2,0.9-0.7c0-0.4-0.3-0.7-0.9-0.7h-6.7
		c-1.3,0-2-0.7-2-2.2s0.7-2.2,2-2.2h8.3c1.9,0,3,0.7,3.5,2s0.6,2.6,0.1,3.8c-0.4,1.2-1.4,1.9-2.7,2.1c1.4,0.2,2.3,0.9,2.7,2.1
		c0.5,1.2,0.4,2.4-0.1,3.8c-0.5,1.3-1.6,2-3.5,2h-8.2c-1.4,0-2.1-0.7-2.1-2.2s0.7-2.2,2.1-2.2h6.6c0.6,0,0.9-0.2,0.9-0.7
		c0-0.4-0.3-0.7-0.9-0.7h-6.7C90.8,35.1,90.8,35.3,90.8,35.3z"/>
	<path class="st4" d="M107.1,35.3c-1.4,0-2.1-0.7-2.1-2.2s0.7-2.2,2.1-2.2h6.7c0.6,0,0.9-0.2,0.9-0.7c0-0.4-0.3-0.7-0.9-0.7H107
		c-1.3,0-2-0.7-2-2.2s0.7-2.2,2-2.2h8.3c1.9,0,3,0.7,3.5,2s0.6,2.6,0.1,3.8c-0.4,1.2-1.3,1.9-2.7,2.1c1.4,0.2,2.3,0.9,2.7,2.1
		c0.5,1.2,0.4,2.4-0.1,3.8c-0.5,1.3-1.6,2-3.5,2h-8.2c-1.4,0-2.1-0.7-2.1-2.2s0.7-2.2,2.1-2.2h6.6c0.6,0,0.9-0.2,0.9-0.7
		c0-0.4-0.3-0.7-0.9-0.7h-6.6C107.1,35.1,107.1,35.3,107.1,35.3z"/>
	<g>
		<path class="st10" d="M58.9,45.8C58.9,45.8,58.8,45.8,58.9,45.8C58.8,45.8,58.8,45.8,58.9,45.8l-0.2-0.1c-0.1,0-0.1-0.1-0.2-0.1
			c-0.1,0-0.2,0-0.3,0s-0.2,0-0.3,0s-0.2,0.1-0.2,0.1c-0.1,0.1-0.1,0.1-0.1,0.2c0,0.1,0,0.1,0,0.2c0,0.1,0,0.2,0.1,0.3
			c0,0.1,0.1,0.1,0.2,0.2c0.1,0,0.2,0.1,0.2,0.1c0.1,0,0.2,0.1,0.3,0.1s0.2,0.1,0.3,0.1s0.2,0.1,0.2,0.1c0.1,0.1,0.1,0.1,0.2,0.2
			c0,0.1,0.1,0.2,0.1,0.3s0,0.3-0.1,0.4c0,0.1-0.1,0.2-0.2,0.3c-0.1,0.1-0.2,0.2-0.3,0.2s-0.3,0.1-0.4,0.1c-0.2,0-0.4,0-0.5-0.1
			s-0.3-0.2-0.4-0.3l0.1-0.1c0,0,0,0,0.1,0c0,0,0,0,0.1,0c0,0,0,0,0.1,0.1l0.1,0.1l0.1,0.1c0.1,0,0.1,0,0.2,0.1c0.1,0,0.1,0,0.2,0
			c0.1,0,0.2,0,0.3-0.1c0.1,0,0.2-0.1,0.2-0.2c0.1-0.1,0.1-0.1,0.2-0.2c0-0.1,0.1-0.2,0.1-0.3s0-0.2-0.1-0.3c0-0.1-0.1-0.1-0.2-0.2
			c-0.1,0-0.2-0.1-0.2-0.1c-0.4,0-0.5,0-0.6,0s-0.2-0.1-0.3-0.1s-0.2-0.1-0.2-0.1c-0.1-0.1-0.1-0.1-0.2-0.2c0-0.1-0.1-0.2-0.1-0.3
			s0-0.2,0.1-0.3c0-0.1,0.1-0.2,0.2-0.3c0.1-0.1,0.2-0.1,0.3-0.2c0.1,0,0.2-0.1,0.4-0.1s0.3,0,0.4,0.1
			C58.7,45.6,58.8,45.6,58.9,45.8L58.9,45.8z"/>
		<path class="st10" d="M70.2,47.7C70.2,47.6,70.3,47.7,70.2,47.7C70.3,47.6,70.3,47.6,70.2,47.7l1.3-2.2l0,0l0,0h0.2v3.1h-0.2V46
			c0,0,0,0,0-0.1L70.3,48c0,0,0,0.1-0.1,0.1l0,0c0,0-0.1,0-0.1-0.1l-1.2-2.1c0,0,0,0,0,0.1v2.6h-0.2v-3.1h0.2l0,0l0,0L70.2,47.7
			C70.2,47.6,70.2,47.6,70.2,47.7z"/>
		<path class="st11" d="M84,48.5h-0.2c0,0,0,0-0.1,0l0,0l-0.4-0.9h-1.5l-0.4,0.9l0,0c0,0,0,0-0.1,0h-0.2l1.3-3.1h0.2L84,48.5z
			 M82,47.4h1.4l-0.6-1.6v-0.1l0,0l0,0v0.1L82,47.4z"/>
		<path class="st10" d="M93.8,47.1v1.4h-0.2v-3.1h0.8c0.4,0,0.6,0.1,0.8,0.2c0.2,0.1,0.3,0.3,0.3,0.6c0,0.1,0,0.2-0.1,0.3
			c0,0.1-0.1,0.2-0.2,0.3S95,46.9,94.9,47c-0.1,0-0.2,0.1-0.4,0.1l0.1,0.1l1.1,1.3h-0.2c0,0,0,0-0.1,0l0,0l-1-1.2l-0.1-0.1h-0.1
			L93.8,47.1L93.8,47.1z M93.8,46.9h0.5c0.1,0,0.3,0,0.4,0s0.2-0.1,0.3-0.1c0.1-0.1,0.1-0.1,0.2-0.2c0-0.1,0.1-0.2,0.1-0.3
			c0-0.2-0.1-0.4-0.2-0.5s-0.4-0.2-0.6-0.2h-0.6v1.3H93.8z"/>
		<path class="st10" d="M105.6,47.1v1.4h-0.2v-3.1h0.8c0.4,0,0.6,0.1,0.8,0.2c0.2,0.1,0.3,0.3,0.3,0.6c0,0.1,0,0.2-0.1,0.3
			c0,0.1-0.1,0.2-0.2,0.3s-0.2,0.1-0.3,0.2c-0.1,0-0.2,0.1-0.4,0.1l0.1,0.1l1.1,1.3h-0.2c0,0,0,0-0.1,0l0,0l-1-1.2l-0.1-0.1H106
			L105.6,47.1L105.6,47.1z M105.6,46.9h0.5c0.1,0,0.3,0,0.4,0s0.2-0.1,0.3-0.1c0.1-0.1,0.1-0.1,0.2-0.2c0-0.1,0.1-0.2,0.1-0.3
			c0-0.2-0.1-0.4-0.2-0.5s-0.4-0.2-0.6-0.2h-0.6v1.3H105.6z"/>
		<path class="st10" d="M119,45.4v0.2h-1v2.9h-0.2v-2.9h-1.1v-0.2H119z"/>
	</g>
</g>
<text transform="matrix(1 0 0 1 99.7579 60.9308)" class="st12 st13">ROB_100-008-0</text>
</svg>
