<?xml version="1.0" encoding="utf-8"?>
<!-- Generator: Adobe Illustrator 21.1.0, SVG Export Plug-In . SVG Version: 6.00 Build 0)  -->
<svg version="1.1" id="Laag_1" xmlns="http://www.w3.org/2000/svg" xmlns:xlink="http://www.w3.org/1999/xlink" x="0px" y="0px"
	 viewBox="0 0 901.4 340.8" style="enable-background:new 0 0 901.4 340.8;" xml:space="preserve">
<style type="text/css">
	.st0{stroke:#000000;stroke-miterlimit:10;}
</style>
<path class="st0" d="M183.5,76.3c0,47.3-22.4,71.5-67.2,72.8h-6.5l27.1,26c15.3,15.8,16.4,31.3,3.4,46.6s-29.1,15.3-48.5,0l-66-65.7
	C9.3,143,1,132.2,1,123.5c0-25.2,11.8-37.8,35.5-37.8h79.4c8.4,0,12.6-3.2,12.6-9.5s-4.2-9.5-12.6-9.5H31.2
	c-19.9,0-30-10.6-30.5-31.6C0.1,14,10.2,3.5,30.8,3.5h81.7C159.8,3.5,183.5,27.7,183.5,76.3z"/>
<path d="M201.6,116.8c0-16,3-31.2,9.2-45.4c6.1-14.2,14.4-26.6,24.8-37.2c10.4-10.6,22.8-18.9,37-25C286.8,3.1,301.9,0,318,0
	c16,0,31.1,3.1,45.4,9.2c14.2,6.1,26.6,14.4,37.2,25c10.5,10.6,18.9,23,25,37.2s9.2,29.4,9.2,45.4s-3,31.2-9.2,45.4
	c-6.1,14.2-14.4,26.6-25,37s-23,18.7-37.2,24.8s-29.4,9.2-45.4,9.2s-31.2-3-45.4-9.2c-14.2-6.1-26.6-14.4-37-24.8
	c-10.4-10.4-18.7-22.8-24.8-37C204.6,147.9,201.6,132.8,201.6,116.8z M265.6,117.6c0,7.4,1.3,14.2,4,20.6
	c2.7,6.3,6.4,11.9,11.3,16.7c4.8,4.8,10.4,8.6,16.8,11.2c6.4,2.7,13.2,4,20.6,4s14.3-1.3,20.8-4s12.1-6.4,16.8-11.2
	c4.7-4.8,8.5-10.4,11.3-16.7s4.2-13.2,4.2-20.6s-1.4-14.3-4.2-20.8c-2.8-6.5-6.6-12.1-11.3-16.8c-4.7-4.7-10.3-8.4-16.8-11.2
	c-6.5-2.8-13.4-4.2-20.8-4.2S304,66,297.7,68.8c-6.4,2.8-12,6.5-16.8,11.2c-4.9,4.7-8.6,10.3-11.3,16.8
	C266.9,103.3,265.6,110.3,265.6,117.6z"/>
<path d="M488.6,149.1c-20.1,0-30.2-10.6-30.2-31.7s9.9-31.6,29.8-31.6h97c8.4,0,12.6-3.2,12.6-9.5s-4.2-9.5-12.6-9.5h-97.8
	c-19.3,0-29-10.6-29-31.6c0-21.1,9.5-31.7,28.6-31.7h120.3c27,0,44,9.7,51.2,29c7.6,19.3,8.2,37.6,1.5,54.9
	c-6.4,17-19.6,27.1-39.7,30.1c19.8,3.1,33.1,13.3,39.7,30.6c6.6,17.3,6.1,35.5-1.5,54.7c-7.1,19.4-23.9,29.1-50.4,29.1H488.6
	c-20.1,0-30.2-10.6-30.2-31.6c0-21.1,10.2-31.7,30.5-31.7h96.2c8.4,0,12.6-3.2,12.6-9.7c0-6.4-4.2-9.7-12.6-9.7h-96.5V149.1z"/>
<path d="M725.4,149.1c-20.1,0-30.2-10.6-30.2-31.7s9.9-31.6,29.8-31.6h97c8.4,0,12.6-3.2,12.6-9.5s-4.2-9.5-12.6-9.5h-97.8
	c-19.3,0-29-10.6-29-31.6c0-21.1,9.6-31.7,28.6-31.7h120.3c27,0,44,9.7,51.2,29c7.6,19.3,8.1,37.6,1.5,54.9
	c-6.4,17-19.6,27.1-39.7,30.1c19.9,3.1,33.1,13.3,39.7,30.6c6.6,17.3,6.1,35.5-1.5,54.7c-7.1,19.4-23.9,29.1-50.4,29.1H725.4
	c-20.1,0-30.2-10.6-30.2-31.6c0-21.1,10.2-31.7,30.6-31.7H822c8.4,0,12.6-3.2,12.6-9.7c0-6.4-4.2-9.7-12.6-9.7h-96.6V149.1z"/>
<g>
	<path d="M25.6,300.9c-0.2,0.4-0.5,0.5-0.8,0.5s-0.6-0.2-1.1-0.6c-0.4-0.4-1-0.8-1.8-1.3c-0.7-0.5-1.7-0.9-2.8-1.3
		c-1.1-0.4-2.5-0.6-4.1-0.6s-3.1,0.2-4.3,0.7s-2.3,1.1-3.1,1.9s-1.5,1.7-1.9,2.8c-0.4,1.1-0.6,2.2-0.6,3.3c0,1.5,0.3,2.8,1,3.8
		c0.6,1,1.5,1.8,2.6,2.5s2.3,1.3,3.6,1.8s2.7,0.9,4.1,1.4s2.8,1,4.1,1.5c1.3,0.6,2.5,1.3,3.6,2.1c1.1,0.8,1.9,1.9,2.5,3.1
		s1,2.8,1,4.6c0,1.9-0.3,3.6-1,5.3c-0.6,1.7-1.6,3.1-2.8,4.3c-1.2,1.2-2.7,2.2-4.5,2.9c-1.8,0.7-3.8,1.1-6.1,1.1
		c-3,0-5.5-0.5-7.6-1.6c-2.1-1-4-2.5-5.6-4.3l0.9-1.4c0.3-0.3,0.5-0.5,0.9-0.5c0.2,0,0.4,0.1,0.7,0.4s0.7,0.6,1.1,0.9
		c0.4,0.4,0.9,0.8,1.5,1.2c0.6,0.4,1.3,0.8,2.1,1.2c0.8,0.4,1.7,0.7,2.7,0.9c1,0.3,2.2,0.4,3.5,0.4c1.8,0,3.4-0.3,4.8-0.8
		s2.6-1.3,3.5-2.2c1-0.9,1.7-2,2.2-3.3s0.8-2.6,0.8-4.1c0-1.6-0.3-2.9-1-3.9c-0.6-1-1.5-1.9-2.5-2.6c-1.1-0.7-2.3-1.3-3.6-1.7
		c-1.3-0.5-2.7-0.9-4.1-1.4c-1.4-0.4-2.8-0.9-4.1-1.5s-2.5-1.2-3.6-2.1s-1.9-1.9-2.6-3.2c-0.6-1.3-1-2.9-1-4.8
		c0-1.5,0.3-2.9,0.9-4.3s1.4-2.6,2.5-3.7s2.5-1.9,4.1-2.6c1.6-0.6,3.5-1,5.5-1c2.3,0,4.4,0.4,6.3,1.1c1.8,0.7,3.5,1.9,5,3.4
		L25.6,300.9z"/>
	<path d="M190.6,329.1c0.1-0.3,0.3-0.7,0.4-1c0.1-0.3,0.3-0.6,0.5-0.9l17.6-31.1c0.2-0.3,0.3-0.4,0.5-0.5s0.4-0.1,0.7-0.1h2.2v44.8
		h-2.8v-38.2c0-0.5,0-1.1,0.1-1.7l-17.6,31.3c-0.3,0.5-0.7,0.8-1.3,0.8h-0.5c-0.5,0-0.9-0.3-1.3-0.8L171,300.3
		c0.1,0.6,0.1,1.2,0.1,1.8v38.2h-2.8v-44.8h2.2c0.3,0,0.5,0,0.7,0.1s0.4,0.2,0.5,0.5l18.1,31.1C190.1,327.8,190.4,328.4,190.6,329.1
		z"/>
	<path d="M390.8,340.2h-2.5c-0.3,0-0.5-0.1-0.7-0.2c-0.2-0.2-0.3-0.4-0.4-0.6l-5.3-13h-22l-5.3,13c-0.1,0.2-0.2,0.4-0.4,0.6
		c-0.2,0.2-0.5,0.3-0.8,0.3H351l18.3-44.8h3.2L390.8,340.2z M360.9,324H381l-9.1-22.6c-0.1-0.4-0.3-0.8-0.4-1.2
		c-0.1-0.5-0.3-0.9-0.4-1.4c-0.1,0.5-0.3,1-0.4,1.4c-0.1,0.5-0.3,0.9-0.4,1.2L360.9,324z"/>
	<path d="M533.4,320v20.2h-3.2v-44.8h11.4c5.2,0,9,1,11.6,3s3.8,4.9,3.8,8.8c0,1.7-0.3,3.3-0.9,4.7c-0.6,1.4-1.4,2.7-2.5,3.7
		c-1.1,1.1-2.4,1.9-4,2.6s-3.3,1.1-5.3,1.3c0.5,0.3,1,0.7,1.4,1.3l15.4,19.4h-2.8c-0.3,0-0.6-0.1-0.9-0.2c-0.2-0.1-0.5-0.3-0.7-0.6
		l-14.3-18.2c-0.4-0.5-0.7-0.8-1.2-1c-0.4-0.2-1-0.3-1.9-0.3h-5.9V320z M533.4,317.6h7.8c2,0,3.8-0.2,5.3-0.7c1.6-0.5,2.9-1.2,4-2
		c1.1-0.9,1.9-1.9,2.5-3.2c0.6-1.2,0.9-2.6,0.9-4.2c0-3.2-1-5.5-3.1-7.1c-2.1-1.5-5.1-2.3-9.1-2.3h-8.2v19.5H533.4z"/>
	<path d="M704.7,320v20.2h-3.2v-44.8h11.4c5.2,0,9,1,11.6,3s3.8,4.9,3.8,8.8c0,1.7-0.3,3.3-0.9,4.7c-0.6,1.4-1.4,2.7-2.6,3.7
		c-1.1,1.1-2.4,1.9-4,2.6s-3.3,1.1-5.3,1.3c0.5,0.3,1,0.7,1.4,1.3l15.4,19.4h-2.8c-0.3,0-0.6-0.1-0.9-0.2c-0.2-0.1-0.5-0.3-0.7-0.6
		l-14.3-18.2c-0.4-0.5-0.7-0.8-1.2-1c-0.4-0.2-1-0.3-1.9-0.3h-5.8V320z M704.7,317.6h7.8c2,0,3.8-0.2,5.3-0.7c1.6-0.5,2.9-1.2,4-2
		c1.1-0.9,1.9-1.9,2.5-3.2c0.6-1.2,0.9-2.6,0.9-4.2c0-3.2-1-5.5-3.1-7.1c-2.1-1.5-5.1-2.3-9.1-2.3h-8.2v19.5H704.7z"/>
	<path d="M899.6,295.5v2.8h-15.7v42h-3.2v-42h-15.8v-2.8H899.6z"/>
</g>
</svg>
