<?xml version="1.0" encoding="utf-8"?>
<!-- Generator: Adobe Illustrator 21.1.0, SVG Export Plug-In . SVG Version: 6.00 Build 0)  -->
<svg version="1.1" id="Laag_1" xmlns="http://www.w3.org/2000/svg" xmlns:xlink="http://www.w3.org/1999/xlink" x="0px" y="0px"
	 viewBox="0 0 157.1 157.1" style="enable-background:new 0 0 157.1 157.1;" xml:space="preserve">
<style type="text/css">
	.st0{fill:none;stroke:#0A0C06;stroke-linejoin:bevel;stroke-miterlimit:22.9256;}
	.st1{fill:#1D1D1B;stroke:#0066FF;stroke-width:0.5;stroke-miterlimit:10;}
</style>
<path class="st0" d="M9.3,0.5C7,0.5,4.7,1.4,3.1,3.1C1.4,4.7,0.5,6.9,0.5,9.3"/>
<path class="st0" d="M0.5,147.8c0,2.3,0.9,4.6,2.6,6.2c1.6,1.6,3.9,2.6,6.2,2.6"/>
<path class="st0" d="M156.6,9.3c0-2.3-0.9-4.6-2.6-6.2c-1.6-1.6-3.9-2.6-6.2-2.6"/>
<line class="st0" x1="147.8" y1="0.5" x2="9.3" y2="0.5"/>
<path class="st0" d="M147.8,156.6c2.3,0,4.6-0.9,6.2-2.6c1.6-1.6,2.6-3.9,2.6-6.2"/>
<line class="st0" x1="0.5" y1="9.3" x2="0.5" y2="147.8"/>
<line class="st0" x1="9.3" y1="156.6" x2="147.8" y2="156.6"/>
<line class="st0" x1="156.6" y1="147.8" x2="156.6" y2="9.3"/>
<path class="st0" d="M139.4,137.2c0-39.1,0-97.9,0-117.4"/>
<path class="st0" d="M19.8,139.4c39.1,0,97.9,0,117.4,0"/>
<path class="st0" d="M137.3,139.4c0.6,0,1.3-0.4,1.5-0.6c0.4-0.4,0.6-1.2,0.6-1.5"/>
<path class="st0" d="M102.9,17.6c0,40.6,0,101.5,0,121.8"/>
<path class="st0" d="M139.4,19.8c0-0.6-0.4-1.3-0.6-1.5c-0.4-0.4-1.2-0.6-1.5-0.6"/>
<path class="st0" d="M54.2,17.6c0,40.6,0,101.4,0,121.7"/>
<path class="st0" d="M54.4,20.4c16.1,0,40.4,0,48.4,0"/>
<path class="st0" d="M102.6,136.6c-16.1,0-40.2,0-48.2,0"/>
<path class="st0" d="M17.6,137.2c0-39.1,0-97.9,0-117.4"/>
<path class="st0" d="M19.8,139.4c-0.6,0-1.3-0.4-1.5-0.6c-0.4-0.4-0.6-1.2-0.6-1.5"/>
<path class="st0" d="M54.2,17.6c0,0.3,0,0.7,0,0.8"/>
<path class="st0" d="M17.6,19.8c0-0.6,0.4-1.3,0.6-1.5c0.4-0.4,1.2-0.6,1.5-0.6"/>
<path class="st0" d="M19.8,17.6c39.1,0,97.9,0,117.4,0"/>
<rect x="77.5" y="29.7" width="2.1" height="4.2"/>
<g>
	<path class="st1" d="M123.7,76.4c-0.5-0.5-1.3-0.9-2.1-0.9c-0.8,0-1.6,0.3-2.1,0.9h0c-0.5,0.5-0.9,1.3-0.9,2.1
		c0,0.8,0.3,1.6,0.9,2.1h0c0.5,0.5,1.3,0.9,2.1,0.9c0.8,0,1.6-0.3,2.1-0.9h0c0.5-0.5,0.9-1.3,0.9-2.1
		C124.5,77.7,124.2,76.9,123.7,76.4L123.7,76.4z M119.3,81.1l-1.4,1.4l-0.4-0.4l1.4-1.4c-0.5-0.5-0.8-1.2-0.8-2h-2v-0.5h2
		c0.1-0.8,0.4-1.5,0.8-2l-1.4-1.4l0.4-0.4l1.4,1.4c0.5-0.5,1.2-0.8,2-0.8v-2h0.5v2c0.8,0.1,1.5,0.4,2,0.8l1.4-1.4l0.4,0.4l-1.4,1.4
		c0.5,0.5,0.8,1.2,0.8,2h2v0.5h-2c-0.1,0.8-0.4,1.5-0.8,2l1.4,1.4l-0.4,0.4l-1.4-1.4c-0.5,0.5-1.2,0.8-2,0.8v2h-0.5v-2
		C120.6,81.9,119.9,81.6,119.3,81.1z"/>
</g>
<g>
	<path class="st1" d="M35.8,79.5v-6.2h0.5v6.2H35.8z M38.2,75.7c0.7,0.4,1.2,0.9,1.6,1.6c0.4,0.7,0.6,1.4,0.6,2.2
		c0,1.2-0.5,2.3-1.3,3.1c-0.8,0.8-1.9,1.3-3.1,1.3c-1.2,0-2.3-0.5-3.1-1.3c-0.8-0.8-1.3-1.9-1.3-3.1c0-0.8,0.2-1.5,0.6-2.2
		c0.4-0.7,0.9-1.2,1.6-1.6l0.2,0.4c-0.6,0.3-1.1,0.8-1.4,1.4c-0.3,0.6-0.5,1.3-0.5,1.9c0,1.1,0.4,2,1.1,2.8c0.7,0.7,1.7,1.1,2.8,1.1
		c1.1,0,2-0.4,2.8-1.1c0.7-0.7,1.1-1.7,1.1-2.8c0-0.7-0.2-1.4-0.5-1.9c-0.3-0.6-0.8-1.1-1.4-1.4L38.2,75.7z"/>
</g>
</svg>
